<svg xmlns="http://www.w3.org/2000/svg" viewBox="0 0 64 64" width="64" height="64">
  <rect width="64" height="64" rx="12" fill="#0F172A"/>
  <g transform="translate(19,30) scale(0.13)">
    
  <!-- P (rounded sans-serif, bold). 80 wide, 200 tall. -->
  <path d="M0 -100 L0 100 L24 100 L24 24 L48 24 C84 24 104 6 104 -38 C104 -82 84 -100 48 -100 Z M24 -78 L48 -78 C70 -78 80 -68 80 -38 C80 -8 70 2 48 2 L24 2 Z"
        fill="#FFFFFF"/>
  <!-- T (sans-serif, bold). 80 wide, centered ~120 right of P. -->
  <g transform="translate(124,0)">
    <path d="M0 -100 L0 -78 L28 -78 L28 100 L52 100 L52 -78 L80 -78 L80 -100 Z"
          fill="#FFFFFF"/>
  </g>

  </g>
</svg>